<?xml version="1.0" encoding="UTF-8"?>

<!--
  - Copyright 2022-2025 Sweden Connect
  -
  - Licensed under the Apache License, Version 2.0 (the "License");
  - you may not use this file except in compliance with the License.
  - You may obtain a copy of the License at
  -
  -     http://www.apache.org/licenses/LICENSE-2.0
  -
  - Unless required by applicable law or agreed to in writing, software
  - distributed under the License is distributed on an "AS IS" BASIS,
  - WITHOUT WARRANTIES OR CONDITIONS OF ANY KIND, either express or implied.
  - See the License for the specific language governing permissions and
  - limitations under the License.
  -->

<svg version="1.1" xmlns="http://www.w3.org/2000/svg" viewBox="0 0 256 256" fill="#505050">
    <path d="M32 239.3c18.2 16.7 57.1 15.4 74.5-1.7l30.9-32c8.3-8.8 4.8-15.1.7-19.9-4.7-3-12-8.1-20.4.5l-29.4 29.6a29.4 29.4 0 0 1-39.4.9l-8-7c-8.8-9.4-11-28.3-.8-38.8l49.8-51.3c7.2-6.6 21.3-10 36.1-2.4 6.9 5.4 15.6 15.7 26 6.2 9.9-11.2 2.9-20.4-10-29.3-18.7-12.6-52-14.8-70.4 3.8L17 154.2c-20 20.2-11.3 58 1.7 71.5a69 69 0 0 0 13.2 13.6z"/>
    <path d="M223.2 17.5c-18.4-16.6-57.3-15.3-74.6 2l-30.8 31.9c-8.3 9-4.8 15.2-.7 20 4.8 3 12.1 8 20.5-.6 4.8-5 29.3-29.6 29.3-29.6a29.4 29.4 0 0 1 39.4-1l8 6.8c8.8 9.5 11 28.3.9 38.9l-49.6 51.4c-7.2 6.7-21.3 10.1-36.1 2.6-7-5.4-15.7-15.7-26.1-6.2-9.8 11.2-2.8 20.4 10.2 29.3 18.7 12.5 52 14.7 70.3-4l54.4-56.5c20-20.3 11.2-58-1.9-71.5a69 69 0 0 0-13.2-13.5Z"/>
</svg>
